<svg xmlns="http://www.w3.org/2000/svg" viewBox="0 0 644.06 173.25"><defs><style>.cls-1{fill:#107f6c;}</style></defs><title>Ativo 1</title><g id="Camada_2" data-name="Camada 2"><g id="Camada_1-2" data-name="Camada 1"><path class="cls-1" d="M148.2,88.07a90.2,90.2,0,0,1-6.11,33.7A75.71,75.71,0,0,1,98.23,165.4a93.71,93.71,0,0,1-34.52,6.12H0V4.62H63.71a93.1,93.1,0,0,1,34.52,6.17A78.19,78.19,0,0,1,124.89,28a76.83,76.83,0,0,1,17.2,26.37A90.26,90.26,0,0,1,148.2,88.07Zm-31.74,0a76.63,76.63,0,0,0-3.69-24.64A52.11,52.11,0,0,0,102.27,45,45.38,45.38,0,0,0,85.7,33.36a57,57,0,0,0-22-4H31.28v117.5H63.71a57,57,0,0,0,22-4,45.38,45.38,0,0,0,16.57-11.6,52.19,52.19,0,0,0,10.5-18.47A76.63,76.63,0,0,0,116.46,88.07Z"/><path d="M254.16,78.14a13.67,13.67,0,0,1-2.48,2.54,5.7,5.7,0,0,1-3.52.92,7.88,7.88,0,0,1-4.27-1.32c-1.38-.89-3-1.89-5-3a36.85,36.85,0,0,0-6.87-3A31.41,31.41,0,0,0,222.19,73,30.09,30.09,0,0,0,209,75.66a25,25,0,0,0-9.4,7.79,35,35,0,0,0-5.6,12.3,66,66,0,0,0-1.85,16.33,63.9,63.9,0,0,0,2,16.85A36.16,36.16,0,0,0,200,141.34a25.29,25.29,0,0,0,9.23,7.62,28,28,0,0,0,12.24,2.59,30.24,30.24,0,0,0,11-1.67,34.7,34.7,0,0,0,7.1-3.7c1.92-1.34,3.6-2.57,5-3.69a7.59,7.59,0,0,1,4.79-1.67,5.8,5.8,0,0,1,5.2,2.65l8.19,10.39a51.84,51.84,0,0,1-10.27,9.29,55.81,55.81,0,0,1-11.49,6,58,58,0,0,1-12.29,3.18,88.13,88.13,0,0,1-12.58.92,52.54,52.54,0,0,1-20.66-4.1,48.18,48.18,0,0,1-16.91-11.94A57.57,57.57,0,0,1,167.19,138,74.23,74.23,0,0,1,163,112.08a75.29,75.29,0,0,1,3.75-24.18,54.67,54.67,0,0,1,11-19.28,50.37,50.37,0,0,1,18-12.75,62,62,0,0,1,24.7-4.62q13.28,0,23.26,4.27a56.93,56.93,0,0,1,18,12.23Z"/><path d="M331.61,51.25a64.88,64.88,0,0,1,24.07,4.27,52,52,0,0,1,18.41,12.12A53.61,53.61,0,0,1,385.86,86.8,72.9,72.9,0,0,1,390,112.08a73.21,73.21,0,0,1-4.16,25.39,54.84,54.84,0,0,1-11.77,19.28A51.09,51.09,0,0,1,355.68,169a70.12,70.12,0,0,1-48.19,0A51.48,51.48,0,0,1,289,156.75a55.09,55.09,0,0,1-11.89-19.28,72.27,72.27,0,0,1-4.21-25.39,72,72,0,0,1,4.21-25.28A53.85,53.85,0,0,1,289,67.64a52.42,52.42,0,0,1,18.53-12.12A65.26,65.26,0,0,1,331.61,51.25Zm0,100.07q14.77,0,21.87-9.93t7.1-29.08q0-19.15-7.1-29.2t-21.87-10q-15,0-22.16,10.1t-7.16,29.15q0,19,7.16,29T331.61,151.32Z"/><path d="M495.63,171.52a7,7,0,0,1-7.27-5.19l-2.31-11.43a70.76,70.76,0,0,1-7.74,7.5,48.38,48.38,0,0,1-8.71,5.77,45,45,0,0,1-10,3.75,48,48,0,0,1-11.6,1.33,39.11,39.11,0,0,1-17.78-4,39.72,39.72,0,0,1-13.91-11.71,56.39,56.39,0,0,1-9-19,95.75,95.75,0,0,1-3.17-25.86,80.64,80.64,0,0,1,3.58-24.47A59.3,59.3,0,0,1,418,68.56a47.83,47.83,0,0,1,16-13,46.32,46.32,0,0,1,21-4.68,41.06,41.06,0,0,1,17,3.18,44.44,44.44,0,0,1,12.58,8.48V0h28.51V171.52Zm-38-20.89a29.06,29.06,0,0,0,15.12-3.7,44.9,44.9,0,0,0,11.78-10.5V83.34A27.92,27.92,0,0,0,474,75a31.1,31.1,0,0,0-12.3-2.43A27.54,27.54,0,0,0,450,75a22.77,22.77,0,0,0-8.89,7.33,36,36,0,0,0-5.6,12.46,71.5,71.5,0,0,0-2,17.83,79.58,79.58,0,0,0,1.67,17.61A34.89,34.89,0,0,0,440,142a18.3,18.3,0,0,0,7.62,6.58A24.21,24.21,0,0,0,457.65,150.63Z"/><path d="M592.81,51.25a57.41,57.41,0,0,1,20.61,3.58,45.12,45.12,0,0,1,16.21,10.44,47.79,47.79,0,0,1,10.62,16.85,63.66,63.66,0,0,1,3.81,22.8,40,40,0,0,1-.29,5.37,8.6,8.6,0,0,1-1,3.35,4.27,4.27,0,0,1-2,1.73,8.79,8.79,0,0,1-3.24.52H564.3q1.28,18.24,9.82,26.78t22.62,8.54a39.12,39.12,0,0,0,12-1.62,56.32,56.32,0,0,0,8.77-3.58q3.75-2,6.58-3.58a11.08,11.08,0,0,1,5.48-1.61,6.21,6.21,0,0,1,3,.69,6.58,6.58,0,0,1,2.19,2L643,153.86a47.35,47.35,0,0,1-10.62,9.29,59.45,59.45,0,0,1-12.29,6,66.88,66.88,0,0,1-13,3.18,94.38,94.38,0,0,1-12.87.92,63.28,63.28,0,0,1-23-4.1A51.35,51.35,0,0,1,552.76,157a56.77,56.77,0,0,1-12.35-19.85q-4.5-11.84-4.5-27.41A65.73,65.73,0,0,1,539.83,87a54.88,54.88,0,0,1,11.26-18.58A52.82,52.82,0,0,1,569,55.87,58.87,58.87,0,0,1,592.81,51.25Zm.58,20.43q-12.46,0-19.51,7t-9,20h53.56a35.53,35.53,0,0,0-1.5-10.45,24.13,24.13,0,0,0-4.62-8.6,21.94,21.94,0,0,0-7.85-5.83A26.78,26.78,0,0,0,593.39,71.68Z"/></g></g></svg>